<?xml version="1.0" encoding="UTF-8"?> <svg xmlns="http://www.w3.org/2000/svg" xmlns:xlink="http://www.w3.org/1999/xlink" version="1.1" id="Calque_1" x="0px" y="0px" viewBox="0 0 926 184.9" style="enable-background:new 0 0 926 184.9;" xml:space="preserve"> <style type="text/css"> .st0{fill:#FFFFFF;} </style> <g> <path class="st0" d="M0,2.1h28.7C54.5,2.1,71,18.3,71,49.6c0,20.1-6.5,34.1-17.6,41.6c12.1,7.2,19.1,21.4,19.1,41.3 c0,32.3-16.3,50.4-43.1,50.4H0V2.1z M29.2,29.4V78H30c8.3,0,12.7-7.5,12.7-24.3S38.2,29.4,30,29.4H29.2z M29.2,104.3V156H31 c7.7,0,12.4-8,12.4-26.1c0-17.6-4.6-25.6-12.4-25.6C31,104.3,29.2,104.3,29.2,104.3z"></path> <path class="st0" d="M81.9,145.6V2.1h30v145.4c0,5.9,2.1,9,5.7,9c3.9,0,5.9-3.1,5.9-9V2.1h29.4v143.6c0,25.3-14.2,39.3-35.6,39.3 C96.1,184.9,81.9,171,81.9,145.6"></path> <path class="st0" d="M165,2.1h31.2c24.5,0,41.6,16.5,41.6,48.3c0,19.1-6.2,33.1-17,41.1c10.1,4.9,14.5,14.7,14.5,31 c0,22.2,0.3,43.9,4.1,60.4h-29.7c-3.1-13.4-3.4-34.9-3.4-64.6c0-9-3.4-12.7-9.8-12.7h-2.1v77.2H165V2.1z M194.4,30.2v48.3h2.1 c7.2,0,11.9-7.5,11.9-24.3s-4.4-24-11.9-24H194.4z"></path> <path class="st0" d="M292.1,166.8c-4.4,12.4-10.6,17.6-19.1,17.6c-18.9,0-26.9-23.5-26.9-91.9c0-72,11.6-92.4,35.6-92.4 c21.4,0,34.3,16.3,34.6,66.4h-26.6c-0.8-29.4-3.6-37.7-7.5-37.7c-4.4,0-7.5,10.8-7.5,63.8c0,54.2,3.4,63.8,8.5,63.8 c3.9,0,7.5-8.3,7.2-46.2h-8V82.1h34.3v100.7h-24.3L292.1,166.8z"></path> <polygon class="st0" points="328.2,2.1 386.6,2.1 386.6,31.2 357.9,31.2 357.9,75.9 379.9,75.9 379.9,104.6 357.9,104.6 357.9,154.2 386.6,154.2 386.6,182.8 328.2,182.8 "></polygon> <path class="st0" d="M396.9,2.1h31.2c24.5,0,41.6,16.5,41.6,48.3c0,19.1-6.2,33.1-17,41.1c10.1,4.9,14.5,14.7,14.5,31 c0,22.2,0.3,43.9,4.1,60.4h-29.7c-3.1-13.4-3.4-34.9-3.4-64.6c0-9-3.4-12.7-9.8-12.7h-2.1v77.2h-29.4L396.9,2.1L396.9,2.1z M426.3,30.2v48.3h2.1c7.2,0,11.9-7.5,11.9-24.3s-4.4-24-11.9-24H426.3z"></path> <path class="st0" d="M493.9,143.1c0-20.7,7.5-36.2,19.4-53.5l-2.1-4.9c-8.5-20.4-10.6-33.1-10.6-45.4C500.6,14.7,513,0,531.3,0 S561,12.7,561,34.6c0,22.7-8,37.2-20.9,57.3l10.8,25.8c0.5-8.3,0.8-17.8,0.3-28.4h22.5c0,26.1-3.1,47-8.8,62.8l12.7,30.7H551 l-2.3-5.4c-5.9,4.9-12.9,7.5-20.7,7.5C506.3,184.9,493.9,168.1,493.9,143.1 M531.3,161.1c3.1,0,6.2-1.8,8.8-5.2l-16-39.5 c-3.1,7.5-5.2,15.2-5.2,24C518.9,152.9,523.3,161.1,531.3,161.1 M529.8,66.1c4.9-9.6,7.2-19.1,7.2-29.4c0-8.8-2.3-13.4-5.9-13.4 c-3.9,0-6.5,5.2-6.5,14.2C524.6,46,525.6,54.2,529.8,66.1"></path> <polygon class="st0" points="601.4,2.1 659.3,2.1 659.3,31.2 631.1,31.2 631.1,75.4 652.5,75.4 652.5,104.6 631.1,104.6 631.1,182.8 601.4,182.8 "></polygon> <path class="st0" d="M669.3,2.1h31.2c24.5,0,41.6,16.5,41.6,48.3c0,19.1-6.2,33.1-17,41.1c10.1,4.9,14.5,14.7,14.5,31 c0,22.2,0.3,43.9,4.1,60.4H714c-3.1-13.4-3.4-34.9-3.4-64.6c0-9-3.4-12.7-9.8-12.7h-2.1v77.2h-29.4V2.1z M698.8,30.2v48.3h2.1 c7.2,0,11.9-7.5,11.9-24.3s-4.4-24-11.9-24H698.8z"></path> <path class="st0" d="M749.9,2.1h30.5l-4.6,134.3h-21.2L749.9,2.1z M750.9,150h27.9v32.8h-27.9V150z"></path> <polygon class="st0" points="790.2,2.1 848.5,2.1 848.5,31.2 819.9,31.2 819.9,75.9 841.8,75.9 841.8,104.6 819.9,104.6 819.9,154.2 848.5,154.2 848.5,182.8 790.2,182.8 "></polygon> <path class="st0" d="M856.8,119.6h26.3c0.3,29.7,2.8,37.4,8.3,37.4c3.9,0,6.5-3.9,6.5-14.2c0-17.8-8.5-28.7-17.6-40.3 c-11.1-14.2-23.2-29.2-23.2-58.4C857.1,16,870.2,0,890.4,0c24.5,0,35.1,20.1,34.1,65.3h-25.6c0-29.2-3.4-37.7-8.3-37.7 c-3.6,0-5.7,4.6-5.7,15c0,16.5,8,26.9,17,38c11.4,13.9,24,29.4,24,59.9c0,29.4-14.5,44.4-33.8,44.4 C866.9,184.9,855.3,165.3,856.8,119.6"></path> </g> </svg> 